<svg width="10" height="11" viewBox="0 0 10 11" fill="none" xmlns="http://www.w3.org/2000/svg">
<path d="M5 0C7.7615 0 10 2.2385 10 5C10 7.7615 7.7615 10 5 10C2.2385 10 0 7.7615 0 5C0 2.2385 2.2385 0 5 0ZM5 1C3.93913 1 2.92172 1.42143 2.17157 2.17157C1.42143 2.92172 1 3.93913 1 5C1 6.06087 1.42143 7.07828 2.17157 7.82843C2.92172 8.57857 3.93913 9 5 9C6.06087 9 7.07828 8.57857 7.82843 7.82843C8.57857 7.07828 9 6.06087 9 5C9 3.93913 8.57857 2.92172 7.82843 2.17157C7.07828 1.42143 6.06087 1 5 1ZM5 2C5.12247 2.00002 5.24067 2.04498 5.33219 2.12636C5.4237 2.20774 5.48217 2.31987 5.4965 2.4415L5.5 2.5V4.793L6.8535 6.1465C6.94317 6.23648 6.99524 6.35722 6.99911 6.48419C7.00299 6.61117 6.95839 6.73486 6.87438 6.83014C6.79036 6.92542 6.67322 6.98515 6.54676 6.9972C6.4203 7.00925 6.294 6.97271 6.1935 6.895L6.1465 6.8535L4.6465 5.3535C4.56879 5.27572 4.51888 5.1745 4.5045 5.0655L4.5 5V2.5C4.5 2.36739 4.55268 2.24021 4.64645 2.14645C4.74021 2.05268 4.86739 2 5 2Z" fill="#737373"/>
</svg>
